HIERARCHY
ROOT Hips
{
	OFFSET 0.00000 0.00000 0.00000
	CHANNELS 6 Xposition Yposition Zposition Zrotation Yrotation Xrotation 
	JOINT LHipJoint
	{
		OFFSET 0 0 0
		CHANNELS 3 Zrotation Yrotation Xrotation
		JOINT LeftUpLeg
		{
			OFFSET 1.52977 -1.71332 0.88991
			CHANNELS 3 Zrotation Yrotation Xrotation
			JOINT LeftLeg
			{
				OFFSET 2.23949 -6.15296 0.00000
				CHANNELS 3 Zrotation Yrotation Xrotation
				JOINT LeftFoot
				{
					OFFSET 2.68396 -7.37412 0.00000
					CHANNELS 3 Zrotation Yrotation Xrotation
					JOINT LeftToeBase
					{
						OFFSET 0.20538 -0.56428 2.52710
						CHANNELS 3 Zrotation Yrotation Xrotation
						End Site
						{
							OFFSET 0.00000 -0.00000 1.29919
						}
					}
				}
			}
		}
	}
	JOINT RHipJoint
	{
		OFFSET 0 0 0
		CHANNELS 3 Zrotation Yrotation Xrotation
		JOINT RightUpLeg
		{
			OFFSET -1.45689 -1.71333 0.88991
			CHANNELS 3 Zrotation Yrotation Xrotation
			JOINT RightLeg
			{
				OFFSET -2.36700 -6.50329 0.00000
				CHANNELS 3 Zrotation Yrotation Xrotation
				JOINT RightFoot
				{
					OFFSET -2.69814 -7.41308 0.00000
					CHANNELS 3 Zrotation Yrotation Xrotation
					JOINT RightToeBase
					{
						OFFSET -0.18734 -0.51471 2.37479
						CHANNELS 3 Zrotation Yrotation Xrotation
						End Site
						{
							OFFSET -0.00000 -0.00000 1.22113
						}
					}
				}
			}
		}
	}
	JOINT LowerBack
	{
		OFFSET 0 0 0
		CHANNELS 3 Zrotation Yrotation Xrotation
		JOINT Spine
		{
			OFFSET 0.04294 2.14638 -0.31163
			CHANNELS 3 Zrotation Yrotation Xrotation
			JOINT Spine1
			{
				OFFSET -0.00400 2.17216 0.01486
				CHANNELS 3 Zrotation Yrotation Xrotation
				JOINT Neck
				{
					OFFSET 0 0 0
					CHANNELS 3 Zrotation Yrotation Xrotation
					JOINT Neck1
					{
						OFFSET 0.03869 1.76598 0.14916
						CHANNELS 3 Zrotation Yrotation Xrotation
						JOINT Head
						{
							OFFSET -0.00760 1.75513 -0.18948
							CHANNELS 3 Zrotation Yrotation Xrotation
							End Site
							{
								OFFSET -0.00601 1.82444 -0.08310
							}
						}
					}
				}
				JOINT LeftShoulder
				{
					OFFSET 0 0 0
					CHANNELS 3 Zrotation Yrotation Xrotation
					JOINT LeftArm
					{
						OFFSET 3.73696 0.92058 0.01733
						CHANNELS 3 Zrotation Yrotation Xrotation
						JOINT LeftForeArm
						{
							OFFSET 5.22771 -0.00000 0.00000
							CHANNELS 3 Zrotation Yrotation Xrotation
							JOINT LeftHand
							{
								OFFSET 3.45251 -0.00000 0.00000
								CHANNELS 3 Zrotation Yrotation Xrotation
								JOINT LeftFingerBase
								{
									OFFSET 0 0 0
									CHANNELS 3 Zrotation Yrotation Xrotation
									JOINT LeftHandIndex1
									{
										OFFSET 0.55212 -0.00000 0.00000
										CHANNELS 3 Zrotation Yrotation Xrotation
										End Site
										{
											OFFSET 0.44513 -0.00000 0.00000
										}
									}
								}
								JOINT LThumb
								{
									OFFSET 0 0 0
									CHANNELS 3 Zrotation Yrotation Xrotation
									End Site
									{
										OFFSET 0.45193 -0.00000 0.45193
									}
								}
							}
						}
					}
				}
				JOINT RightShoulder
				{
					OFFSET 0 0 0
					CHANNELS 3 Zrotation Yrotation Xrotation
					JOINT RightArm
					{
						OFFSET -3.63819 0.83094 -0.13694
						CHANNELS 3 Zrotation Yrotation Xrotation
						JOINT RightForeArm
						{
							OFFSET -5.23980 -0.00000 -0.00000
							CHANNELS 3 Zrotation Yrotation Xrotation
							JOINT RightHand
							{
								OFFSET -3.48042 -0.00000 -0.00000
								CHANNELS 3 Zrotation Yrotation Xrotation
								JOINT RightFingerBase
								{
									OFFSET 0 0 0
									CHANNELS 3 Zrotation Yrotation Xrotation
									JOINT RightHandIndex1
									{
										OFFSET -0.61871 -0.00000 0.00000
										CHANNELS 3 Zrotation Yrotation Xrotation
										End Site
										{
											OFFSET -0.49882 -0.00000 0.00000
										}
									}
								}
								JOINT RThumb
								{
									OFFSET 0 0 0
									CHANNELS 3 Zrotation Yrotation Xrotation
									End Site
									{
										OFFSET -0.50644 -0.00000 0.50644
									}
								}
							}
						}
					}
				}
			}
		}
	}
}
MOTION
Frames: 15
Frame Time: .0083333
51.8786 14.7437 -5.8355 0 0 0 0 0 0 -21 0 0 0 0 0 0 0 0 0 0 0 0 0 0 21 0 0 0 0 0 0 0 0 0 0 0 0 0 0 0 0 0 0 0 0 0 0 -16 0 0 21 0 0 11 0 0 0 -8 0 0 0 0 0 0 0 0 0 0 0 0 0 0 0 0 0 0 0 0 8 0 0 0 0 0 0 0 0 0 0 0 0 0 0 0 0 0
51.8786 14.7437 -5.8355 -24.1728 -86.8449 48.1220 0.0000 0.0000 0.0000 -9.2479 -9.6053 -64.0155 10.2143 17.5286 60.2021 1.0267 -7.3656 -18.1024 0.0304 -1.1250 -3.0929 0.0000 0.0000 0.0000 10.3682 15.4432 -66.1026 -12.1376 -18.4482 66.4244 -1.4699 2.4172 -22.2657 -0.0125 -0.7208 1.9809 2.2173 -1.1480 28.9564 -0.0560 -1.5090 7.9388 -0.7958 -1.0000 -7.0832 -3.0627 -6.7802 1.2439 9.1774 -8.8434 -24.6112 4.1125 -5.2916 -7.1331 -0.0000 -0.0000 0.0000 -82.9808 -9.0396 34.2278 36.1575 -45.6212 -15.6350 -0.0000 0.0000 -28.3078 9.5367 16.6592 2.7574 -7.1250 0.0000 -0.0000 -17.1675 46.1200 -0.4888 -0.0000 -0.0000 0.0000 86.8543 8.2029 41.6329 -39.1397 47.5519 -17.8018 0.0000 -0.0000 -12.6270 -13.1291 -10.5901 2.4545 7.1250 -0.0000 -0.0000 12.2567 -40.5425 1.3705
51.8785 14.7449 -5.8358 -24.0968 -86.8472 48.0501 0.0000 0.0000 0.0000 -9.2657 -9.5906 -64.0151 10.2082 17.5253 60.1819 1.0258 -7.3599 -18.0947 0.0313 -1.1422 -3.1400 0.0000 0.0000 0.0000 10.3640 15.4442 -66.0997 -12.1322 -18.4460 66.4073 -1.4670 2.4319 -22.2399 -0.0140 -0.7635 2.0983 2.2212 -1.1489 28.9674 -0.0629 -1.5090 7.9345 -0.8054 -1.0000 -7.0936 -3.0521 -6.7820 1.2270 9.1749 -8.8446 -24.5802 4.1073 -5.2917 -7.1205 -0.0000 0.0000 0.0000 -82.9666 -9.0266 34.2299 36.1699 -45.6297 -15.6438 -0.0000 0.0000 -28.3262 9.5039 16.6170 2.7410 -7.1250 0.0000 -0.0000 -17.1821 46.0754 -0.4698 -0.0000 0.0000 0.0000 86.8587 8.1827 41.6236 -39.1579 47.5630 -17.8153 0.0000 -0.0000 -12.5816 -13.1622 -10.5351 2.4483 7.1250 -0.0000 -0.0000 12.2159 -40.4903 1.3818
51.8773 14.7465 -5.8362 -24.1309 -86.8400 48.0871 0.0000 0.0000 0.0000 -9.2653 -9.5800 -64.0058 10.2037 17.5228 60.1671 1.0241 -7.3812 -18.0808 0.0310 -1.1357 -3.1223 0.0000 0.0000 0.0000 10.3716 15.4458 -66.0812 -12.1256 -18.4432 66.3863 -1.4670 2.4726 -22.2309 -0.0164 -0.8277 2.2748 2.2325 -1.1493 28.9655 -0.0622 -1.5059 7.9304 -0.8122 -0.9985 -7.0973 -3.0412 -6.7948 1.2696 9.1735 -8.8619 -24.6036 4.1094 -5.3016 -7.1353 0.0000 0.0000 0.0000 -82.9650 -9.0096 34.2372 36.1675 -45.6280 -15.6421 -0.0000 0.0000 -28.3232 9.5068 16.6553 2.7479 -7.1250 0.0000 -0.0000 -17.1931 46.1125 -0.4863 0.0000 0.0000 0.0000 86.8692 8.1594 41.6186 -39.1599 47.5642 -17.8167 0.0000 -0.0000 -12.5845 -13.0856 -10.6704 2.4644 7.1250 -0.0000 -0.0000 12.3122 -40.6190 1.3533
51.8776 14.7471 -5.8372 -23.9212 -86.8344 47.8904 0.0000 0.0000 0.0000 -9.2703 -9.5819 -64.0155 10.1990 17.5202 60.1514 1.0221 -7.4012 -18.0640 0.0301 -1.1196 -3.0780 0.0000 0.0000 0.0000 10.3671 15.4382 -66.0916 -12.1225 -18.4419 66.3765 -1.4696 2.4410 -22.2581 -0.0144 -0.7751 2.1302 2.2201 -1.1506 28.9652 -0.0571 -1.5104 7.9306 -0.7979 -1.0005 -7.0968 -3.0474 -6.7911 1.2468 9.1640 -8.8586 -24.5763 4.1044 -5.2977 -7.1227 0.0000 0.0000 0.0000 -82.9706 -9.0160 34.2256 36.1566 -45.6206 -15.6343 -0.0000 0.0000 -28.3210 9.4900 16.5569 2.7273 -7.1250 0.0000 -0.0000 -17.1732 46.0157 -0.4435 0.0000 0.0000 0.0000 86.8488 8.1807 41.6429 -39.1437 47.5543 -17.8047 0.0000 -0.0000 -12.5847 -13.1137 -10.6231 2.4591 7.1250 -0.0000 -0.0000 12.2774 -40.5741 1.3632
51.8774 14.7479 -5.8379 -23.9026 -86.8277 47.8794 0.0000 0.0000 0.0000 -9.2698 -9.5751 -64.0193 10.1952 17.5181 60.1387 1.0209 -7.4126 -18.0542 0.0299 -1.1163 -3.0690 0.0000 0.0000 0.0000 10.3724 15.4370 -66.0901 -12.1177 -18.4400 66.3615 -1.4709 2.4325 -22.2700 -0.0140 -0.7626 2.0959 2.2214 -1.1522 28.9654 -0.0544 -1.5117 7.9308 -0.7952 -1.0011 -7.0966 -3.0444 -6.7924 1.2420 9.1549 -8.8620 -24.5675 4.1004 -5.2985 -7.1195 0.0000 -0.0000 0.0000 -82.9707 -9.0147 34.2204 36.1531 -45.6182 -15.6318 -0.0000 0.0000 -28.3258 9.4872 16.5148 2.7197 -7.1250 0.0000 -0.0000 -17.1608 45.9748 -0.4253 0.0000 -0.0000 0.0000 86.8419 8.1881 41.6560 -39.1336 47.5481 -17.7973 0.0000 -0.0000 -12.5843 -13.1190 -10.6190 2.4592 7.1250 -0.0000 -0.0000 12.2719 -40.5705 1.3637
51.8773 14.7486 -5.8386 -23.9080 -86.8200 47.8912 0.0000 0.0000 0.0000 -9.2671 -9.5684 -64.0228 10.1917 17.5162 60.1271 1.0200 -7.4229 -18.0460 0.0297 -1.1133 -3.0607 0.0000 0.0000 0.0000 10.3803 15.4348 -66.0889 -12.1140 -18.4384 66.3498 -1.4728 2.4221 -22.2878 -0.0132 -0.7412 2.0371 2.2233 -1.1541 28.9646 -0.0510 -1.5135 7.9328 -0.7920 -1.0020 -7.0940 -3.0432 -6.7934 1.2411 9.1467 -8.8650 -24.5663 4.0976 -5.2993 -7.1193 -0.0000 0.0000 0.0000 -82.9710 -9.0146 34.2146 36.1494 -45.6157 -15.6292 -0.0000 0.0000 -28.3333 9.4945 16.4817 2.7166 -7.1250 0.0000 -0.0000 -17.1425 45.9438 -0.4114 -0.0000 0.0000 0.0000 86.8332 8.2000 41.6725 -39.1206 47.5402 -17.7877 0.0000 -0.0000 -12.5897 -13.1254 -10.6162 2.4598 7.1250 -0.0000 -0.0000 12.2657 -40.5683 1.3636
51.8772 14.7491 -5.8393 -23.9081 -86.8121 47.8973 0.0000 0.0000 0.0000 -9.2638 -9.5633 -64.0266 10.1888 17.5147 60.1175 1.0192 -7.4302 -18.0401 0.0296 -1.1106 -3.0532 0.0000 0.0000 0.0000 10.3892 15.4303 -66.0882 -12.1104 -18.4369 66.3383 -1.4747 2.4132 -22.3045 -0.0124 -0.7203 1.9795 2.2246 -1.1564 28.9631 -0.0478 -1.5160 7.9362 -0.7884 -1.0032 -7.0894 -3.0421 -6.7942 1.2371 9.1398 -8.8678 -24.5680 4.0953 -5.3003 -7.1194 -0.0000 0.0000 0.0000 -82.9709 -9.0165 34.2093 36.1472 -45.6141 -15.6276 -0.0000 0.0000 -28.3447 9.5102 16.4519 2.7164 -7.1250 0.0000 -0.0000 -17.1179 45.9171 -0.3991 -0.0000 0.0000 0.0000 86.8232 8.2151 41.6906 -39.1077 47.5323 -17.7782 0.0000 -0.0000 -12.5974 -13.1420 -10.6040 2.4602 7.1250 -0.0000 -0.0000 12.2486 -40.5576 1.3650
51.8772 14.7495 -5.8400 -23.9061 -86.8032 47.9005 0.0000 0.0000 0.0000 -9.2594 -9.5599 -64.0307 10.1863 17.5133 60.1092 1.0188 -7.4351 -18.0362 0.0295 -1.1093 -3.0495 0.0000 0.0000 0.0000 10.3995 15.4237 -66.0879 -12.1073 -18.4356 66.3286 -1.4764 2.4132 -22.3176 -0.0121 -0.7107 1.9531 2.2273 -1.1593 28.9613 -0.0452 -1.5191 7.9402 -0.7861 -1.0048 -7.0841 -3.0417 -6.7964 1.2393 9.1377 -8.8719 -24.5791 4.0955 -5.3026 -7.1234 -0.0000 0.0000 0.0000 -82.9699 -9.0177 34.2049 36.1469 -45.6139 -15.6274 -0.0000 0.0000 -28.3581 9.5365 16.4323 2.7209 -7.1250 0.0000 -0.0000 -17.0873 45.9015 -0.3916 -0.0000 0.0000 0.0000 86.8146 8.2287 41.7077 -39.0979 47.5263 -17.7710 0.0000 -0.0000 -12.6082 -13.1584 -10.5905 2.4603 7.1250 -0.0000 -0.0000 12.2315 -40.5454 1.3667
51.8772 14.7498 -5.8407 -23.8940 -86.7933 47.8929 0.0000 0.0000 0.0000 -9.2542 -9.5589 -64.0345 10.1844 17.5123 60.1029 1.0184 -7.4407 -18.0328 0.0293 -1.1048 -3.0371 0.0000 0.0000 0.0000 10.4104 15.4144 -66.0881 -12.1050 -18.4347 66.3212 -1.4778 2.4210 -22.3271 -0.0120 -0.7083 1.9465 2.2317 -1.1624 28.9600 -0.0432 -1.5219 7.9436 -0.7856 -1.0062 -7.0797 -3.0411 -6.8003 1.2487 9.1392 -8.8777 -24.5963 4.0976 -5.3063 -7.1303 0.0000 -0.0000 0.0000 -82.9678 -9.0168 34.2047 36.1490 -45.6154 -15.6289 -0.0000 0.0000 -28.3734 9.5648 16.4153 2.7263 -7.1250 0.0000 -0.0000 -17.0558 45.8885 -0.3852 0.0000 -0.0000 0.0000 86.8066 8.2371 41.7220 -39.0952 47.5246 -17.7690 0.0000 -0.0000 -12.6197 -13.1752 -10.5854 2.4624 7.1250 -0.0000 -0.0000 12.2158 -40.5417 1.3661
51.8772 14.7500 -5.8413 -23.8652 -86.7839 47.8683 0.0000 0.0000 0.0000 -9.2489 -9.5605 -64.0381 10.1829 17.5115 60.0981 1.0181 -7.4439 -18.0309 0.0291 -1.1010 -3.0269 0.0000 0.0000 0.0000 10.4203 15.4042 -66.0892 -12.1032 -18.4339 66.3156 -1.4786 2.4344 -22.3305 -0.0123 -0.7156 1.9666 2.2347 -1.1655 28.9599 -0.0416 -1.5251 7.9465 -0.7845 -1.0077 -7.0766 -3.0393 -6.8054 1.2591 9.1419 -8.8850 -24.6157 4.1002 -5.3111 -7.1380 0.0000 -0.0000 0.0000 -82.9667 -9.0141 34.2034 36.1539 -45.6187 -15.6324 -0.0000 0.0000 -28.3872 9.5879 16.4092 2.7320 -7.1250 0.0000 -0.0000 -17.0330 45.8856 -0.3834 0.0000 -0.0000 0.0000 86.7982 8.2425 41.7351 -39.0988 47.5268 -17.7716 0.0000 -0.0000 -12.6317 -13.1880 -10.5871 2.4652 7.1250 -0.0000 -0.0000 12.2052 -40.5445 1.3640
51.8773 14.7501 -5.8419 -23.8722 -86.7741 47.8802 0.0000 0.0000 0.0000 -9.2404 -9.5629 -64.0437 10.1822 17.5111 60.0957 1.0181 -7.4461 -18.0313 0.0289 -1.0977 -3.0178 0.0000 0.0000 0.0000 10.4315 15.3959 -66.0926 -12.1018 -18.4334 66.3112 -1.4791 2.4447 -22.3315 -0.0125 -0.7215 1.9829 2.2395 -1.1680 28.9605 -0.0404 -1.5269 7.9483 -0.7853 -1.0086 -7.0749 -3.0349 -6.8121 1.2671 9.1429 -8.8946 -24.6307 4.1015 -5.3168 -7.1439 -0.0000 -0.0000 0.0000 -82.9652 -9.0102 34.2038 36.1623 -45.6245 -15.6384 -0.0000 0.0000 -28.3999 9.6077 16.4043 2.7370 -7.1250 0.0000 -0.0000 -17.0134 45.8832 -0.3819 -0.0000 -0.0000 0.0000 86.7913 8.2444 41.7442 -39.1072 47.5320 -17.7779 0.0000 -0.0000 -12.6424 -13.1933 -10.5912 2.4672 7.1250 -0.0000 -0.0000 12.2015 -40.5491 1.3621
51.8773 14.7502 -5.8424 -23.9232 -86.7654 47.9350 0.0000 0.0000 0.0000 -9.2299 -9.5648 -64.0482 10.1819 17.5109 60.0947 1.0185 -7.4469 -18.0343 0.0287 -1.0929 -3.0044 0.0000 0.0000 0.0000 10.4438 15.3900 -66.0952 -12.1006 -18.4329 66.3074 -1.4792 2.4522 -22.3310 -0.0126 -0.7259 1.9950 2.2436 -1.1701 28.9625 -0.0393 -1.5284 7.9497 -0.7858 -1.0094 -7.0744 -3.0302 -6.8186 1.2696 9.1429 -8.9039 -24.6382 4.1017 -5.3221 -7.1465 0.0000 0.0000 0.0000 -82.9618 -8.9940 34.2011 36.1848 -45.6399 -15.6545 -0.0000 0.0000 -28.4115 9.6147 16.4102 2.7400 -7.1250 0.0000 -0.0000 -17.0092 45.8899 -0.3847 0.0000 0.0000 0.0000 86.7842 8.2445 41.7551 -39.1174 47.5382 -17.7854 0.0000 -0.0000 -12.6514 -13.1999 -10.6003 2.4706 7.1250 -0.0000 -0.0000 12.1979 -40.5588 1.3587
51.8773 14.7502 -5.8430 -24.0147 -86.7570 48.0310 0.0000 0.0000 0.0000 -9.2166 -9.5665 -64.0541 10.1823 17.5111 60.0960 1.0191 -7.4447 -18.0396 0.0286 -1.0909 -2.9989 0.0000 0.0000 0.0000 10.4576 15.3868 -66.0991 -12.0996 -18.4324 66.3041 -1.4789 2.4542 -22.3281 -0.0127 -0.7268 1.9973 2.2465 -1.1718 28.9634 -0.0375 -1.5297 7.9511 -0.7851 -1.0101 -7.0732 -3.0253 -6.8239 1.2627 9.1403 -8.9119 -24.6365 4.1000 -5.3263 -7.1447 -0.0000 -0.0000 0.0000 -82.9619 -8.9786 34.1941 36.2100 -45.6571 -15.6725 -0.0000 0.0000 -28.4201 9.6171 16.4084 2.7404 -7.1250 0.0000 -0.0000 -17.0064 45.8885 -0.3840 -0.0000 -0.0000 0.0000 86.7757 8.2454 41.7671 -39.1269 47.5440 -17.7923 0.0000 -0.0000 -12.6576 -13.2013 -10.6108 2.4733 7.1250 -0.0000 -0.0000 12.1991 -40.5693 1.3557
51.8773 14.7501 -5.8434 -24.1239 -86.7516 48.1443 0.0000 0.0000 0.0000 -9.2043 -9.5667 -64.0597 10.1831 17.5115 60.0985 1.0201 -7.4393 -18.0479 0.0287 -1.0946 -3.0090 0.0000 0.0000 0.0000 10.4697 15.3868 -66.1034 -12.0989 -18.4321 66.3018 -1.4784 2.4527 -22.3242 -0.0126 -0.7244 1.9907 2.2462 -1.1726 28.9647 -0.0364 -1.5308 7.9523 -0.7833 -1.0106 -7.0725 -3.0225 -6.8291 1.2533 9.1390 -8.9194 -24.6292 4.0986 -5.3300 -7.1404 0.0000 0.0000 0.0000 -82.9640 -8.9632 34.1825 36.2376 -45.6759 -15.6923 -0.0000 0.0000 -28.4243 9.6118 16.4092 2.7390 -7.1250 0.0000 -0.0000 -17.0114 45.8885 -0.3841 0.0000 0.0000 0.0000 86.7668 8.2476 41.7814 -39.1329 47.5477 -17.7968 0.0000 -0.0000 -12.6598 -13.1966 -10.6254 2.4757 7.1250 -0.0000 -0.0000 12.2064 -40.5836 1.3521
